<?xml version="1.0" encoding="UTF-8" standalone="no"?>
<!-- Generator: Adobe Illustrator 23.0.6, SVG Export Plug-In . SVG Version: 6.00 Build 0)  -->

<svg
   xmlns:dc="http://purl.org/dc/elements/1.1/"
   xmlns:cc="http://creativecommons.org/ns#"
   xmlns:rdf="http://www.w3.org/1999/02/22-rdf-syntax-ns#"
   xmlns:svg="http://www.w3.org/2000/svg"
   xmlns="http://www.w3.org/2000/svg"
   xmlns:sodipodi="http://sodipodi.sourceforge.net/DTD/sodipodi-0.dtd"
   xmlns:inkscape="http://www.inkscape.org/namespaces/inkscape"
   version="1.1"
   id="Layer_1_xA0_Image_1_"
   x="0px"
   y="0px"
   viewBox="0 0 316.72 316.72"
   xml:space="preserve"
   sodipodi:docname="CeLaVi_v4.svg"
   inkscape:version="0.92.5 (0.92.5+68)"
   inkscape:export-filename="/home/irepan/Downloads/CeLaVi_v4.png"
   inkscape:export-xdpi="300"
   inkscape:export-ydpi="300"
   width="316.72"
   height="316.72"><metadata
     id="metadata8"><rdf:RDF><cc:Work
         rdf:about=""><dc:format>image/svg+xml</dc:format><dc:type
           rdf:resource="http://purl.org/dc/dcmitype/StillImage" /><dc:title></dc:title></cc:Work></rdf:RDF></metadata><defs
     id="defs6" /><sodipodi:namedview
     pagecolor="#ffffff"
     bordercolor="#666666"
     borderopacity="1"
     objecttolerance="10"
     gridtolerance="10"
     guidetolerance="10"
     inkscape:pageopacity="0"
     inkscape:pageshadow="2"
     inkscape:window-width="1920"
     inkscape:window-height="1003"
     id="namedview4"
     showgrid="false"
     inkscape:snap-grids="false"
     inkscape:snap-to-guides="false"
     inkscape:zoom="0.75466869"
     inkscape:cx="-74.234367"
     inkscape:cy="330.00922"
     inkscape:window-x="0"
     inkscape:window-y="24"
     inkscape:window-maximized="1"
     inkscape:current-layer="layer1"
     fit-margin-top="0"
     fit-margin-left="0"
     fit-margin-right="0"
     fit-margin-bottom="0"><inkscape:grid
       type="xygrid"
       id="grid4756"
       originx="1.6118895"
       originy="2.4684919" /></sodipodi:namedview><g
     inkscape:groupmode="layer"
     id="layer1"
     inkscape:label="vect"
     style="display:inline;opacity:0.95999995"
     transform="translate(1.6118896,1.5315097)"><path
   style="fill:#000055;fill-opacity:1;fill-rule:evenodd;stroke:#000055;stroke-width:4;stroke-linecap:round;stroke-linejoin:round;stroke-miterlimit:4;stroke-dasharray:none;stroke-dashoffset:0;stroke-opacity:1"
   id="path4749"
   sodipodi:type="arc"
   sodipodi:cx="156.74811"
   sodipodi:cy="156.82849"
   sodipodi:rx="156.36"
   sodipodi:ry="156.36"
   sodipodi:start="0"
   sodipodi:end="6.2825773"
   d="M 313.10811,156.82849 A 156.36,156.36 0 0 1 156.77187,313.18849 156.36,156.36 0 0 1 0.38811453,156.87603 156.36,156.36 0 0 1 156.67681,0.46850686 156.36,156.36 0 0 1 313.10808,156.73342 l -156.35997,0.0951 z"
   transform="translate(3.3007813e-6)" /><text
   xml:space="preserve"
   style="font-style:normal;font-variant:normal;font-weight:normal;font-stretch:normal;line-height:0%;font-family:Arial;-inkscape-font-specification:'Arial, Normal';text-align:start;letter-spacing:0px;word-spacing:0px;writing-mode:lr-tb;text-anchor:start;fill:#ffffff;fill-opacity:1;stroke:none"
   x="175.50491"
   y="173.45862"
   id="text4910"
   transform="rotate(36.914416)"><tspan
     sodipodi:role="line"
     id="tspan4908"
     x="175.50491"
     y="173.45862"
     style="font-size:60px;line-height:10;fill:#ffffff">C</tspan></text>




<text
   xml:space="preserve"
   style="font-style:normal;font-variant:normal;font-weight:normal;font-stretch:normal;line-height:0%;font-family:Arial;-inkscape-font-specification:'Arial, Normal';text-align:start;letter-spacing:0px;word-spacing:0px;writing-mode:lr-tb;text-anchor:start;fill:#ffffff;fill-opacity:1;stroke:none"
   x="188.93614"
   y="218.43524"
   id="text4914"
   transform="rotate(24.685999)"><tspan
     sodipodi:role="line"
     id="tspan4912"
     x="188.93614"
     y="218.43524"
     style="font-size:60px;line-height:10;fill:#ffffff">e</tspan></text>




<text
   xml:space="preserve"
   style="font-style:normal;font-variant:normal;font-weight:normal;font-stretch:normal;line-height:0%;font-family:Arial;-inkscape-font-specification:'Arial, Normal';text-align:start;letter-spacing:0px;word-spacing:0px;writing-mode:lr-tb;text-anchor:start;fill:#ffffff;fill-opacity:1;stroke:none"
   x="160.18271"
   y="278.797"
   id="text4918"
   transform="rotate(7.0513021)"><tspan
     sodipodi:role="line"
     id="tspan4916"
     x="160.18271"
     y="278.797"
     style="font-size:60px;line-height:10;fill:#ffffff">L</tspan></text>




<text
   xml:space="preserve"
   style="font-style:normal;font-variant:normal;font-weight:normal;font-stretch:normal;line-height:0%;font-family:Arial;-inkscape-font-specification:'Arial, Normal';text-align:start;letter-spacing:0px;word-spacing:0px;writing-mode:lr-tb;text-anchor:start;fill:#ffffff;fill-opacity:1;stroke:none"
   x="66.243088"
   y="337.98743"
   id="text4922"
   transform="rotate(-18.95187)"><tspan
     sodipodi:role="line"
     id="tspan4920"
     x="66.243088"
     y="337.98743"
     style="font-size:60px;line-height:10;fill:#ffffff">a</tspan></text>




<text
   xml:space="preserve"
   style="font-style:normal;font-variant:normal;font-weight:normal;font-stretch:normal;line-height:0%;font-family:Arial;-inkscape-font-specification:'Arial, Normal';text-align:start;letter-spacing:0px;word-spacing:0px;writing-mode:lr-tb;text-anchor:start;fill:#ffffff;fill-opacity:1;stroke:none"
   x="12.207251"
   y="357.97287"
   id="text4926"
   transform="rotate(-35.59813)"><tspan
     sodipodi:role="line"
     id="tspan4924"
     x="12.207251"
     y="357.97287"
     style="font-size:60px;line-height:10;fill:#ffffff">V</tspan></text>




<text
   xml:space="preserve"
   style="font-style:normal;font-variant:normal;font-weight:normal;font-stretch:normal;line-height:0%;font-family:Arial;-inkscape-font-specification:'Arial, Normal';text-align:start;letter-spacing:0px;word-spacing:0px;writing-mode:lr-tb;text-anchor:start;fill:#ffffff;fill-opacity:1;stroke:none"
   x="33.289406"
   y="361.50211"
   id="text4930"
   transform="rotate(-40.65386)"><tspan
     sodipodi:role="line"
     id="tspan4928"
     x="33.289406"
     y="361.50211"
     style="font-size:60px;line-height:10;fill:#ffffff">i</tspan></text>




<path
   style="fill:#800080;stroke:#f9f9f9;stroke-width:3.54312229;stroke-linecap:round;stroke-linejoin:round;stroke-miterlimit:4;stroke-dasharray:none;stroke-dashoffset:0;stroke-opacity:1"
   id="path4753"
   sodipodi:type="arc"
   sodipodi:cx="33.197205"
   sodipodi:cy="147.36082"
   sodipodi:rx="24.358965"
   sodipodi:ry="24.358965"
   sodipodi:start="0"
   sodipodi:end="6.2821247"
   d="M 57.55617,147.36082 A 24.358965,24.358965 0 0 1 33.203663,171.71979 24.358965,24.358965 0 0 1 8.8382431,147.37374 24.358965,24.358965 0 0 1 33.177828,123.00187 24.358965,24.358965 0 0 1 57.556156,147.33499"
   sodipodi:open="true"
   transform="translate(12,-40)" /><path
   style="display:inline;fill:#800080;stroke:#ffffff;stroke-width:2.20000005;stroke-linecap:round;stroke-linejoin:round;stroke-miterlimit:4;stroke-dasharray:none;stroke-dashoffset:0;stroke-opacity:1"
   id="path4753-3"
   sodipodi:type="arc"
   sodipodi:cx="202.74876"
   sodipodi:cy="42.732994"
   sodipodi:rx="12.25125"
   sodipodi:ry="12.25125"
   sodipodi:start="0"
   sodipodi:end="6.2821247"
   d="m 215.00001,42.732994 a 12.25125,12.25125 0 0 1 -12.248,12.25125 A 12.25125,12.25125 0 0 1 190.49752,42.739491 12.25125,12.25125 0 0 1 202.73902,30.481748 12.25125,12.25125 0 0 1 215.00001,42.72"
   sodipodi:open="true"
   transform="matrix(1.61051,0,0,1.61051,-234.20689,-25.037932)" /><path
   style="display:inline;fill:#000055;fill-opacity:1;fill-rule:evenodd;stroke:#ffffff;stroke-width:2.20000005;stroke-linecap:round;stroke-linejoin:round;stroke-miterlimit:4;stroke-dasharray:none;stroke-dashoffset:0;stroke-opacity:1"
   id="path4753-3-9"
   sodipodi:type="arc"
   sodipodi:cx="212.74876"
   sodipodi:cy="50.390549"
   sodipodi:rx="12.25125"
   sodipodi:ry="12.25125"
   sodipodi:start="0"
   sodipodi:end="6.2821247"
   d="m 225.00001,50.390549 a 12.25125,12.25125 0 0 1 -12.248,12.25125 12.25125,12.25125 0 0 1 -12.25449,-12.244753 12.25125,12.25125 0 0 1 12.2415,-12.257744 12.25125,12.25125 0 0 1 12.26099,12.238253"
   sodipodi:open="true"
   transform="matrix(1.61051,0,0,1.61051,-234.20689,-25.037932)" /><path
   style="display:inline;fill:#800080;stroke:#ffffff;stroke-width:2.20000005;stroke-linecap:round;stroke-linejoin:round;stroke-miterlimit:4;stroke-dasharray:none;stroke-dashoffset:0;stroke-opacity:1"
   id="path4753-3-7"
   sodipodi:type="arc"
   sodipodi:cx="246.57959"
   sodipodi:cy="70.901154"
   sodipodi:rx="9.9235125"
   sodipodi:ry="9.9235125"
   sodipodi:start="0"
   sodipodi:end="6.2821247"
   d="m 256.5031,70.901154 a 9.9235125,9.9235125 0 0 1 -9.92088,9.923512 9.9235125,9.9235125 0 0 1 -9.92614,-9.91825 9.9235125,9.9235125 0 0 1 9.91562,-9.928772 9.9235125,9.9235125 0 0 1 9.9314,9.912985"
   sodipodi:open="true"
   transform="matrix(1.61051,0,0,1.61051,-193.84408,-84.204455)" /><path
   style="display:inline;fill:#800080;fill-opacity:1;fill-rule:evenodd;stroke:#ffffff;stroke-width:2.20000005;stroke-linecap:round;stroke-linejoin:round;stroke-miterlimit:4;stroke-dasharray:none;stroke-dashoffset:0;stroke-opacity:1"
   id="path4753-3-9-2-7"
   sodipodi:type="arc"
   sodipodi:cx="238.01831"
   sodipodi:cy="82.73053"
   sodipodi:rx="9.9235125"
   sodipodi:ry="9.9235125"
   sodipodi:start="0"
   sodipodi:end="6.2821247"
   d="m 247.94182,82.73053 a 9.9235125,9.9235125 0 0 1 -9.92088,9.923512 9.9235125,9.9235125 0 0 1 -9.92614,-9.91825 9.9235125,9.9235125 0 0 1 9.91562,-9.928772 9.9235125,9.9235125 0 0 1 9.9314,9.912985"
   sodipodi:open="true"
   transform="matrix(1.61051,0,0,1.61051,-193.84408,-84.204455)" /><path
   style="display:inline;fill:#000055;fill-opacity:1;fill-rule:evenodd;stroke:#ffffff;stroke-width:2.20000005;stroke-linecap:round;stroke-linejoin:round;stroke-miterlimit:4;stroke-dasharray:none;stroke-dashoffset:0;stroke-opacity:1"
   id="path4753-3-9-2"
   sodipodi:type="arc"
   sodipodi:cx="256.57953"
   sodipodi:cy="77.73053"
   sodipodi:rx="9.9235125"
   sodipodi:ry="9.9235125"
   sodipodi:start="0"
   sodipodi:end="6.2821247"
   d="m 266.50304,77.73053 a 9.9235125,9.9235125 0 0 1 -9.92088,9.923512 9.9235125,9.9235125 0 0 1 -9.92614,-9.91825 9.9235125,9.9235125 0 0 1 9.91562,-9.928772 9.9235125,9.9235125 0 0 1 9.9314,9.912985"
   sodipodi:open="true"
   transform="matrix(1.61051,0,0,1.61051,-193.84408,-84.204455)" /><path
   style="display:inline;fill:#000055;fill-opacity:1;fill-rule:evenodd;stroke:#ffffff;stroke-width:2.20000005;stroke-linecap:round;stroke-linejoin:round;stroke-miterlimit:4;stroke-dasharray:none;stroke-dashoffset:0;stroke-opacity:1"
   id="path4753-3-9-2-0"
   sodipodi:type="arc"
   sodipodi:cx="247.90462"
   sodipodi:cy="90.73053"
   sodipodi:rx="9.9235125"
   sodipodi:ry="9.9235125"
   sodipodi:start="0"
   sodipodi:end="6.2821247"
   d="m 257.82813,90.73053 a 9.9235125,9.9235125 0 0 1 -9.92088,9.92351 9.9235125,9.9235125 0 0 1 -9.92614,-9.918248 9.9235125,9.9235125 0 0 1 9.91561,-9.928772 9.9235125,9.9235125 0 0 1 9.9314,9.912985"
   sodipodi:open="true"
   transform="matrix(1.61051,0,0,1.61051,-193.84408,-84.204455)" /><path
   style="display:inline;fill:#800080;fill-opacity:1;fill-rule:evenodd;stroke:#ffffff;stroke-width:2.20000005;stroke-linecap:round;stroke-linejoin:round;stroke-miterlimit:4;stroke-dasharray:none;stroke-dashoffset:0;stroke-opacity:1"
   id="path4753-3-9-2-04"
   sodipodi:type="arc"
   sodipodi:cx="276.59491"
   sodipodi:cy="123.30429"
   sodipodi:rx="7.1618981"
   sodipodi:ry="7.1618981"
   sodipodi:start="0"
   sodipodi:end="6.2821247"
   d="m 283.75681,123.30429 a 7.1618981,7.1618981 0 0 1 -7.16,7.1619 7.1618981,7.1618981 0 0 1 -7.1638,-7.1581 7.1618981,7.1618981 0 0 1 7.1562,-7.1657 7.1618981,7.1618981 0 0 1 7.16759,7.1543"
   sodipodi:open="true"
   transform="matrix(1.61051,0,0,1.61051,-168.96857,-102.62819)" /><path
   style="display:inline;fill:#800080;stroke:#ffffff;stroke-width:2.20000005;stroke-linecap:round;stroke-linejoin:round;stroke-miterlimit:4;stroke-dasharray:none;stroke-dashoffset:0;stroke-opacity:1"
   id="path4753-3-7-4"
   sodipodi:type="arc"
   sodipodi:cx="262.8381"
   sodipodi:cy="122.7276"
   sodipodi:rx="7.1618981"
   sodipodi:ry="7.1618981"
   sodipodi:start="0"
   sodipodi:end="6.2821247"
   d="m 270,122.7276 a 7.1618981,7.1618981 0 0 1 -7.16,7.1619 7.1618981,7.1618981 0 0 1 -7.16379,-7.1581 7.1618981,7.1618981 0 0 1 7.1562,-7.1657 A 7.1618981,7.1618981 0 0 1 270,122.72"
   sodipodi:open="true"
   transform="matrix(1.61051,0,0,1.61051,-168.96857,-102.62819)" /><path
   style="display:inline;fill:#000055;fill-opacity:1;fill-rule:evenodd;stroke:#ffffff;stroke-width:2.20000005;stroke-linecap:round;stroke-linejoin:round;stroke-miterlimit:4;stroke-dasharray:none;stroke-dashoffset:0;stroke-opacity:1"
   id="path4753-3-9-2-7-8-6"
   sodipodi:type="arc"
   sodipodi:cx="259.59491"
   sodipodi:cy="133.54745"
   sodipodi:rx="7.1618981"
   sodipodi:ry="7.1618981"
   sodipodi:start="0"
   sodipodi:end="6.2821247"
   d="m 266.75681,133.54745 a 7.1618981,7.1618981 0 0 1 -7.16,7.1619 7.1618981,7.1618981 0 0 1 -7.1638,-7.1581 7.1618981,7.1618981 0 0 1 7.1562,-7.16569 7.1618981,7.1618981 0 0 1 7.16759,7.1543"
   sodipodi:open="true"
   transform="matrix(1.61051,0,0,1.61051,-168.96857,-102.62819)" /><path
   style="display:inline;fill:#800080;fill-opacity:1;fill-rule:evenodd;stroke:#ffffff;stroke-width:2.20000005;stroke-linecap:round;stroke-linejoin:round;stroke-miterlimit:4;stroke-dasharray:none;stroke-dashoffset:0;stroke-opacity:1"
   id="path4753-3-9-2-7-8"
   sodipodi:type="arc"
   sodipodi:cx="266.51935"
   sodipodi:cy="131.19804"
   sodipodi:rx="7.1618981"
   sodipodi:ry="7.1618981"
   sodipodi:start="0"
   sodipodi:end="6.2821247"
   d="m 273.68125,131.19804 a 7.1618981,7.1618981 0 0 1 -7.16,7.1619 7.1618981,7.1618981 0 0 1 -7.1638,-7.1581 7.1618981,7.1618981 0 0 1 7.1562,-7.16569 7.1618981,7.1618981 0 0 1 7.16759,7.1543"
   sodipodi:open="true"
   transform="matrix(1.61051,0,0,1.61051,-168.96857,-102.62819)" /><path
   style="display:inline;fill:#800080;fill-opacity:1;fill-rule:evenodd;stroke:#ffffff;stroke-width:2.20000005;stroke-linecap:round;stroke-linejoin:round;stroke-miterlimit:4;stroke-dasharray:none;stroke-dashoffset:0;stroke-opacity:1"
   id="path4753-3-7-4-9"
   sodipodi:type="arc"
   sodipodi:cx="269.59491"
   sodipodi:cy="121.944"
   sodipodi:rx="7.1618981"
   sodipodi:ry="7.1618981"
   sodipodi:start="0"
   sodipodi:end="6.2821247"
   d="m 276.75681,121.944 a 7.1618981,7.1618981 0 0 1 -7.16,7.1619 7.1618981,7.1618981 0 0 1 -7.1638,-7.1581 7.1618981,7.1618981 0 0 1 7.1562,-7.1657 7.1618981,7.1618981 0 0 1 7.16759,7.1543"
   sodipodi:open="true"
   transform="matrix(1.61051,0,0,1.61051,-168.96857,-102.62819)" /><path
   style="display:inline;fill:#000055;fill-opacity:1;fill-rule:evenodd;stroke:#ffffff;stroke-width:2.20000005;stroke-linecap:round;stroke-linejoin:round;stroke-miterlimit:4;stroke-dasharray:none;stroke-dashoffset:0;stroke-opacity:1"
   id="path4753-3-9-2-04-1"
   sodipodi:type="arc"
   sodipodi:cx="279.59491"
   sodipodi:cy="130.30429"
   sodipodi:rx="7.1618981"
   sodipodi:ry="7.1618981"
   sodipodi:start="0"
   sodipodi:end="6.2821247"
   d="m 286.75681,130.30429 a 7.1618981,7.1618981 0 0 1 -7.16,7.1619 7.1618981,7.1618981 0 0 1 -7.1638,-7.1581 7.1618981,7.1618981 0 0 1 7.1562,-7.1657 7.1618981,7.1618981 0 0 1 7.16759,7.1543"
   sodipodi:open="true"
   transform="matrix(1.61051,0,0,1.61051,-168.96857,-102.62819)" /><path
   style="display:inline;fill:#000055;fill-opacity:1;fill-rule:evenodd;stroke:#ffffff;stroke-width:2.20000005;stroke-linecap:round;stroke-linejoin:round;stroke-miterlimit:4;stroke-dasharray:none;stroke-dashoffset:0;stroke-opacity:1"
   id="path4753-3-9-2-0-2-0"
   sodipodi:type="arc"
   sodipodi:cx="274.59491"
   sodipodi:cy="140.30429"
   sodipodi:rx="7.1618981"
   sodipodi:ry="7.1618981"
   sodipodi:start="0"
   sodipodi:end="6.2821247"
   d="m 281.75681,140.30429 a 7.1618981,7.1618981 0 0 1 -7.16,7.1619 7.1618981,7.1618981 0 0 1 -7.1638,-7.1581 7.1618981,7.1618981 0 0 1 7.1562,-7.1657 7.1618981,7.1618981 0 0 1 7.16759,7.1543"
   sodipodi:open="true"
   transform="matrix(1.61051,0,0,1.61051,-168.96857,-102.62819)" /><path
   style="display:inline;fill:#000055;fill-opacity:1;fill-rule:evenodd;stroke:#ffffff;stroke-width:2.20000005;stroke-linecap:round;stroke-linejoin:round;stroke-miterlimit:4;stroke-dasharray:none;stroke-dashoffset:0;stroke-opacity:1"
   id="path4753-3-9-2-0-2"
   sodipodi:type="arc"
   sodipodi:cx="266.46887"
   sodipodi:cy="140.30429"
   sodipodi:rx="7.1618981"
   sodipodi:ry="7.1618981"
   sodipodi:start="0"
   sodipodi:end="6.2821247"
   d="m 273.63077,140.30429 a 7.1618981,7.1618981 0 0 1 -7.16,7.1619 7.1618981,7.1618981 0 0 1 -7.1638,-7.1581 7.1618981,7.1618981 0 0 1 7.15621,-7.1657 7.1618981,7.1618981 0 0 1 7.16759,7.1543"
   sodipodi:open="true"
   transform="matrix(1.61051,0,0,1.61051,-168.96857,-102.62819)" /><g
   id="g4955"
   style="stroke:#ffffff;stroke-width:3;stroke-miterlimit:4;stroke-dasharray:none"
   transform="matrix(1.2033715,-0.12647944,0.12647944,1.2033715,-49.847873,-33.091073)"><path
     inkscape:connector-curvature="0"
     id="path4872"
     d="m 156.73612,89.893834 -1.16306,21.487146 v 0 l 0.0153,-0.28278"
     style="fill:none;stroke:#ffffff;stroke-width:3;stroke-linecap:round;stroke-linejoin:round;stroke-miterlimit:4;stroke-dasharray:none;stroke-opacity:1" /><path
     inkscape:connector-curvature="0"
     id="path4874"
     d="m 170,111.05866 -30,1.74416 -5,22.93555"
     style="fill:none;stroke:#ffffff;stroke-width:3;stroke-linecap:round;stroke-linejoin:round;stroke-miterlimit:4;stroke-dasharray:none;stroke-opacity:1" /><path
     inkscape:connector-curvature="0"
     id="path4876"
     d="m 125,135.32428 22.41568,4.47216"
     style="fill:none;stroke:#ffffff;stroke-width:3;stroke-linecap:round;stroke-linejoin:round;stroke-miterlimit:4;stroke-dasharray:none;stroke-opacity:1" /><path
     inkscape:connector-curvature="0"
     id="path4878"
     d="m 125,135.32428 -15,30.31131"
     style="fill:none;stroke:#ffffff;stroke-width:3;stroke-linecap:round;stroke-linejoin:round;stroke-miterlimit:4;stroke-dasharray:none;stroke-opacity:1" /><path
     sodipodi:nodetypes="cc"
     inkscape:connector-curvature="0"
     id="path4880"
     d="M 147.41568,139.79644 150,171.64337"
     style="fill:none;stroke:#ffffff;stroke-width:3;stroke-linecap:round;stroke-linejoin:round;stroke-miterlimit:4;stroke-dasharray:none;stroke-opacity:1" /><path
     inkscape:connector-curvature="0"
     id="path4882"
     d="M 137.38417,170.76807 C 158.34902,172.72 158.34902,172.72 158.34902,172.72"
     style="fill:none;stroke:#ffffff;stroke-width:3;stroke-linecap:round;stroke-linejoin:round;stroke-miterlimit:4;stroke-dasharray:none;stroke-opacity:1" /><path
     inkscape:connector-curvature="0"
     id="path4884"
     d="M 137.38417,170.76807 C 125,222.72 125,222.72 125,222.72"
     style="fill:none;stroke:#ffffff;stroke-width:3;stroke-linecap:round;stroke-linejoin:round;stroke-miterlimit:4;stroke-dasharray:none;stroke-opacity:1" /><path
     inkscape:connector-curvature="0"
     id="path4886"
     d="m 158.34902,172.72 c 0.11712,30 0.11712,30 0.11712,30"
     style="fill:none;stroke:#ffffff;stroke-width:3;stroke-linecap:round;stroke-linejoin:round;stroke-miterlimit:4;stroke-dasharray:none;stroke-opacity:1" /><path
     inkscape:connector-curvature="0"
     id="path4888"
     d="m 164.33746,202.98597 c 0,0 0,0 -20,2.16668 -2.57958,21.96047 -2.69671,21.96047 -2.69671,21.96047"
     style="fill:none;stroke:#ffffff;stroke-width:3;stroke-linecap:round;stroke-linejoin:round;stroke-miterlimit:4;stroke-dasharray:none;stroke-opacity:1" /><path
     inkscape:connector-curvature="0"
     id="path4890"
     d="m 164.33746,202.98597 c 6.34956,19.55939 6.34956,19.67651 6.34956,19.67651"
     style="fill:none;stroke:#ffffff;stroke-width:3;stroke-linecap:round;stroke-linejoin:round;stroke-miterlimit:4;stroke-dasharray:none;stroke-opacity:1" /><path
     sodipodi:nodetypes="cccc"
     inkscape:connector-curvature="0"
     id="path4894"
     d="m 70,196.77508 28.139091,-34.85392 25.839149,9.52405 -11.92576,49.26422"
     style="fill:none;stroke:#ffffff;stroke-width:3;stroke-linecap:round;stroke-linejoin:round;stroke-miterlimit:4;stroke-dasharray:none;stroke-opacity:1" /><path
     inkscape:connector-curvature="0"
     id="path4896"
     d="m 169.94215,111.14148 c 15.56974,53.9972 15.96887,53.83157 15.96887,53.83157"
     style="fill:none;stroke:#ffffff;stroke-width:3;stroke-linecap:round;stroke-linejoin:round;stroke-miterlimit:4;stroke-dasharray:none;stroke-opacity:1" /><path
     inkscape:connector-curvature="0"
     id="path4898"
     d="m 183.02733,228.65994 c 0,0 0,0 -8.02733,-59.87727 21.44382,-7.37079 21.44382,-7.37079 21.44382,-7.37079 26.41887,48.11714 26.41887,48.11714 26.41887,48.11714"
     style="fill:none;stroke:#ffffff;stroke-width:3;stroke-linecap:round;stroke-linejoin:round;stroke-miterlimit:4;stroke-dasharray:none;stroke-opacity:1" /></g></g></svg>